<?xml version="1.0" encoding="UTF-8"?>
<svg width="200" height="200" viewBox="0 0 200 200" fill="none" xmlns="http://www.w3.org/2000/svg">
  <!-- Seamless pattern with Jamaican and musical elements -->
  
  <!-- Background pattern grid -->
  <rect width="200" height="200" fill="#FFFFFF"/>
  
  <!-- Musical elements -->
  <g fill="#000000">
    <!-- Music notes -->
    <path d="M20 30C20 27.2386 22.2386 25 25 25V25C27.7614 25 30 27.2386 30 30V70C30 72.7614 27.7614 75 25 75V75C22.2386 75 20 72.7614 20 70V30Z" opacity="0.8"/>
    <ellipse cx="25" cy="75" rx="10" ry="7" opacity="0.8"/>
    
    <path d="M70 50C70 47.2386 72.2386 45 75 45V45C77.7614 45 80 47.2386 80 50V90C80 92.7614 77.7614 95 75 95V95C72.2386 95 70 92.7614 70 90V50Z" opacity="0.8"/>
    <ellipse cx="75" cy="95" rx="10" ry="7" opacity="0.8"/>
    
    <path d="M120 20C120 17.2386 122.239 15 125 15V15C127.761 15 130 17.2386 130 20V60C130 62.7614 127.761 65 125 65V65C122.239 65 120 62.7614 120 60V20Z" opacity="0.8"/>
    <ellipse cx="125" cy="65" rx="10" ry="7" opacity="0.8"/>
    
    <!-- Jamaica flag-inspired elements -->
    <rect x="160" y="30" width="25" height="5" fill="#009B3A" opacity="0.8"/>
    <rect x="160" y="40" width="25" height="5" fill="#FED100" opacity="0.8"/>
    <rect x="160" y="50" width="25" height="5" fill="#000000" opacity="0.8"/>
    
    <rect x="30" y="150" width="25" height="5" fill="#009B3A" opacity="0.8"/>
    <rect x="30" y="160" width="25" height="5" fill="#FED100" opacity="0.8"/>
    <rect x="30" y="170" width="25" height="5" fill="#000000" opacity="0.8"/>
    
    <!-- Drum -->
    <ellipse cx="150" cy="150" rx="25" ry="10" fill="#9E6F50" opacity="0.8"/>
    <rect x="125" y="155" width="50" height="25" fill="#9E6F50" opacity="0.8"/>
    <ellipse cx="150" cy="180" rx="25" ry="10" fill="#9E6F50" opacity="0.8"/>
    
    <!-- Music wave -->
    <path d="M20 120C30 110 40 130 50 120C60 110 70 130 80 120" stroke="#000000" stroke-width="2" opacity="0.8"/>
  </g>
</svg>