<?xml version="1.0" encoding="UTF-8"?>
<svg width="300" height="300" viewBox="0 0 300 300" fill="none" xmlns="http://www.w3.org/2000/svg">
  <!-- Music Notes Pattern -->
  <g fill="#009B3A">
    <!-- Music Note 1 -->
    <path d="M70 50C70 47.2386 72.2386 45 75 45V45C77.7614 45 80 47.2386 80 50V120C80 122.761 77.7614 125 75 125V125C72.2386 125 70 122.761 70 120V50Z"/>
    <ellipse cx="75" cy="125" rx="15" ry="10"/>
    <path d="M80 70H110V75C110 77.7614 107.761 80 105 80H85C82.2386 80 80 77.7614 80 75V70Z"/>
    
    <!-- Music Note 2 -->
    <path d="M140 80C140 77.2386 142.239 75 145 75V75C147.761 75 150 77.2386 150 80V150C150 152.761 147.761 155 145 155V155C142.239 155 140 152.761 140 150V80Z"/>
    <ellipse cx="145" cy="155" rx="15" ry="10"/>
    <path d="M150 100H180V105C180 107.761 177.761 110 175 110H155C152.239 110 150 107.761 150 105V100Z"/>
    
    <!-- Music Note 3 -->
    <path d="M210 30C210 27.2386 212.239 25 215 25V25C217.761 25 220 27.2386 220 30V100C220 102.761 217.761 105 215 105V105C212.239 105 210 102.761 210 100V30Z"/>
    <ellipse cx="215" cy="105" rx="15" ry="10"/>
    <path d="M220 50H250V55C250 57.7614 247.761 60 245 60H225C222.239 60 220 57.7614 220 55V50Z"/>
    
    <!-- Music Note 4 -->
    <path d="M50 180C50 177.239 52.2386 175 55 175V175C57.7614 175 60 177.239 60 180V250C60 252.761 57.7614 255 55 255V255C52.2386 255 50 252.761 50 250V180Z"/>
    <ellipse cx="55" cy="255" rx="15" ry="10"/>
    <path d="M60 200H90V205C90 207.761 87.7614 210 85 210H65C62.2386 210 60 207.761 60 205V200Z"/>
    
    <!-- Music Note 5 -->
    <path d="M150 190C150 187.239 152.239 185 155 185V185C157.761 185 160 187.239 160 190V260C160 262.761 157.761 265 155 265V265C152.239 265 150 262.761 150 260V190Z"/>
    <ellipse cx="155" cy="265" rx="15" ry="10"/>
    <path d="M160 220H190V225C190 227.761 187.761 230 185 230H165C162.239 230 160 227.761 160 225V220Z"/>
    
    <!-- Music Note 6 -->
    <path d="M230 160C230 157.239 232.239 155 235 155V155C237.761 155 240 157.239 240 160V230C240 232.761 237.761 235 235 235V235C232.239 235 230 232.761 230 230V160Z"/>
    <ellipse cx="235" cy="235" rx="15" ry="10"/>
    <path d="M240 180H270V185C270 187.761 267.761 190 265 190H245C242.239 190 240 187.761 240 185V180Z"/>
  </g>
</svg>