<?xml version="1.0" encoding="UTF-8"?>
<svg width="600" height="600" viewBox="0 0 600 600" fill="none" xmlns="http://www.w3.org/2000/svg">
  <!-- Jamaican Chef with dreadlocks and traditional Jamaican elements -->
  
  <!-- Background -->
  <rect width="600" height="600" fill="#F5F5F5" />
  
  <!-- Chef Body -->
  <ellipse cx="300" cy="400" rx="140" ry="160" fill="#6B4423" />
  
  <!-- Chef Jacket -->
  <path d="M200 350C200 350 250 480 300 480C350 480 400 350 400 350L420 440C420 440 350 520 300 520C250 520 180 440 180 440L200 350Z" fill="#FFFFFF" />
  
  <!-- Chef Neckerchief with Jamaican colors -->
  <path d="M220 350C220 350 300 370 380 350" stroke="#000000" stroke-width="15" />
  <path d="M220 340C220 340 300 360 380 340" stroke="#FED100" stroke-width="10" />
  <path d="M220 330C220 330 300 350 380 330" stroke="#009B3A" stroke-width="10" />
  
  <!-- Neck -->
  <rect x="280" y="300" width="40" height="50" fill="#6B4423" />
  
  <!-- Head -->
  <ellipse cx="300" cy="240" rx="80" ry="100" fill="#6B4423" />
  
  <!-- Face Features -->
  <!-- Eyes -->
  <ellipse cx="270" cy="230" rx="10" ry="6" fill="#222222" />
  <ellipse cx="330" cy="230" rx="10" ry="6" fill="#222222" />
  
  <!-- Eyebrows -->
  <path d="M260 215C260 215 270 210 280 215" stroke="#222222" stroke-width="3" stroke-linecap="round" />
  <path d="M320 215C320 215 330 210 340 215" stroke="#222222" stroke-width="3" stroke-linecap="round" />
  
  <!-- Nose -->
  <path d="M300 240C300 240 310 255 300 270" stroke="#222222" stroke-width="3" stroke-linecap="round" />
  
  <!-- Mouth - Smile with beard -->
  <path d="M270 280C270 280 285 295 330 280" stroke="#222222" stroke-width="3" stroke-linecap="round" />
  <path d="M260 260C260 260 270 320 300 320C330 320 340 260 340 260" fill="#222222" />
  
  <!-- Dreadlocks -->
  <!-- Left Side -->
  <path d="M220 200C220 200 210 250 200 280C190 310 180 340 190 350" stroke="#222222" stroke-width="12" stroke-linecap="round" />
  <path d="M230 180C230 180 220 230 210 260C200 290 190 320 200 330" stroke="#222222" stroke-width="12" stroke-linecap="round" />
  <path d="M240 170C240 170 230 220 220 250C210 280 200 310 210 320" stroke="#222222" stroke-width="12" stroke-linecap="round" />
  
  <!-- Right Side -->
  <path d="M380 200C380 200 390 250 400 280C410 310 420 340 410 350" stroke="#222222" stroke-width="12" stroke-linecap="round" />
  <path d="M370 180C370 180 380 230 390 260C400 290 410 320 400 330" stroke="#222222" stroke-width="12" stroke-linecap="round" />
  <path d="M360 170C360 170 370 220 380 250C390 280 400 310 390 320" stroke="#222222" stroke-width="12" stroke-linecap="round" />
  
  <!-- Top -->
  <path d="M280 140C280 140 270 100 260 110C250 120 270 170 280 160" stroke="#222222" stroke-width="12" stroke-linecap="round" />
  <path d="M300 130C300 130 300 90 290 95C280 100 290 160 300 150" stroke="#222222" stroke-width="12" stroke-linecap="round" />
  <path d="M320 140C320 140 330 100 340 110C350 120 330 170 320 160" stroke="#222222" stroke-width="12" stroke-linecap="round" />
  
  <!-- Jamaican Flag Headband -->
  <path d="M220 170C220 170 250 150 300 150C350 150 380 170 380 170" stroke="#000000" stroke-width="10" />
  <path d="M220 160C220 160 250 140 300 140C350 140 380 160 380 160" stroke="#FED100" stroke-width="10" />
  <path d="M220 150C220 150 250 130 300 130C350 130 380 150 380 150" stroke="#009B3A" stroke-width="10" />
  
  <!-- Cooking Tool - Mortar and Pestle -->
  <ellipse cx="450" cy="400" rx="40" ry="20" fill="#9E6F50" />
  <path d="M430 380C430 380 450 370 470 380C490 390 470 400 450 400C430 400 410 390 430 380Z" fill="#9E6F50" />
  <rect x="450" y="350" width="10" height="60" fill="#9E6F50" />
  
  <!-- Signature - Island Vibes Kitchen -->
  <text x="300" y="550" font-family="Arial" font-size="20" text-anchor="middle" fill="#009B3A">Island Vibes Kitchen</text>
</svg>