<?xml version="1.0" encoding="UTF-8"?>
<svg width="600" height="600" viewBox="0 0 600 600" fill="none" xmlns="http://www.w3.org/2000/svg">
  <!-- Female Jamaican Chef with head wrap in Jamaican colors -->
  
  <!-- Background -->
  <rect width="600" height="600" fill="#F5F5F5" />
  
  <!-- Chef Body -->
  <ellipse cx="300" cy="400" rx="130" ry="150" fill="#8C5D3F" />
  
  <!-- Chef Jacket -->
  <path d="M200 350C200 350 250 480 300 480C350 480 400 350 400 350L420 440C420 440 350 520 300 520C250 520 180 440 180 440L200 350Z" fill="#FFFFFF" />
  
  <!-- Chef Scarf/Neckerchief -->
  <path d="M220 350C220 350 300 370 380 350L350 390C350 390 300 405 250 390L220 350Z" fill="#FED100" />
  
  <!-- Neck -->
  <rect x="280" y="300" width="40" height="50" fill="#8C5D3F" />
  
  <!-- Head -->
  <ellipse cx="300" cy="240" rx="80" ry="100" fill="#8C5D3F" />
  
  <!-- Face Features -->
  <!-- Eyes -->
  <ellipse cx="270" cy="230" rx="10" ry="6" fill="#222222" />
  <ellipse cx="330" cy="230" rx="10" ry="6" fill="#222222" />
  
  <!-- Eyebrows -->
  <path d="M260 215C260 215 270 210 280 215" stroke="#222222" stroke-width="3" stroke-linecap="round" />
  <path d="M320 215C320 215 330 210 340 215" stroke="#222222" stroke-width="3" stroke-linecap="round" />
  
  <!-- Nose -->
  <path d="M300 240C300 240 310 255 300 270" stroke="#222222" stroke-width="3" stroke-linecap="round" />
  
  <!-- Mouth - Smile -->
  <path d="M270 280C270 280 285 295 330 280" stroke="#222222" stroke-width="3" stroke-linecap="round" />
  
  <!-- Earrings -->
  <circle cx="215" cy="240" r="8" fill="#FFD700" />
  <circle cx="385" cy="240" r="8" fill="#FFD700" />
  
  <!-- Jamaican Head Wrap -->
  <path d="M220 140C220 140 250 120 300 120C350 120 380 140 380 140C380 140 400 160 380 180C360 200 240 200 220 180C200 160 220 140 220 140Z" fill="#000000" />
  <path d="M220 140C220 140 240 175 300 175C360 175 380 140 380 140L220 140Z" fill="#009B3A" />
  <path d="M230 160C230 160 245 185 300 185C355 185 370 160 370 160L230 160Z" fill="#FED100" />
  
  <!-- Wooden Spoon in Hand -->
  <rect x="400" y="380" width="100" height="10" rx="5" fill="#9E6F50" transform="rotate(45 400 380)" />
  <ellipse cx="450" cy="335" rx="20" ry="15" fill="#9E6F50" transform="rotate(45 450 335)" />
  
  <!-- Small Jamaican Flag on Chef Jacket -->
  <rect x="350" y="400" width="30" height="20" fill="#000000" />
  <path d="M350 400L380 410L350 420Z" fill="#009B3A" />
  <path d="M380 400L350 410L380 420Z" fill="#FED100" />
  
  <!-- Signature - Island Vibes Kitchen -->
  <text x="300" y="550" font-family="Arial" font-size="20" text-anchor="middle" fill="#009B3A">Island Vibes Kitchen</text>
</svg>